<svg width="120" height="120" viewBox="0 0 120 120" xmlns="http://www.w3.org/2000/svg">
  <defs>
    <linearGradient id="logoGradient" x1="0%" y1="0%" x2="100%" y2="100%">
      <stop offset="0%" style="stop-color:#3498db;stop-opacity:1" />
      <stop offset="100%" style="stop-color:#2980b9;stop-opacity:1" />
    </linearGradient>
    <filter id="shadow" x="-50%" y="-50%" width="200%" height="200%">
      <feDropShadow dx="2" dy="2" stdDeviation="3" flood-color="rgba(0,0,0,0.3)"/>
    </filter>
  </defs>
  
  <!-- Background Circle -->
  <circle cx="60" cy="60" r="55" fill="url(#logoGradient)" filter="url(#shadow)"/>
  
  <!-- Inner Circle for contrast -->
  <circle cx="60" cy="60" r="48" fill="none" stroke="rgba(255,255,255,0.2)" stroke-width="1"/>
  
  <!-- E Letter -->
  <g transform="translate(25, 35)">
    <rect x="0" y="0" width="15" height="4" fill="white"/>
    <rect x="0" y="0" width="4" height="20" fill="white"/>
    <rect x="0" y="8" width="12" height="4" fill="white"/>
    <rect x="0" y="16" width="15" height="4" fill="white"/>
  </g>
  
  <!-- P Letter -->
  <g transform="translate(45, 35)">
    <rect x="0" y="0" width="4" height="20" fill="white"/>
    <rect x="0" y="0" width="12" height="4" fill="white"/>
    <rect x="0" y="8" width="12" height="4" fill="white"/>
    <rect x="12" y="0" width="4" height="12" fill="white"/>
  </g>
  
  <!-- S Letter -->
  <g transform="translate(65, 35)">
    <rect x="0" y="0" width="15" height="4" fill="white"/>
    <rect x="0" y="0" width="4" height="12" fill="white"/>
    <rect x="0" y="8" width="15" height="4" fill="white"/>
    <rect x="11" y="8" width="4" height="12" fill="white"/>
    <rect x="0" y="16" width="15" height="4" fill="white"/>
  </g>
  
  <!-- Subtle bottom accent -->
  <path d="M 20 85 Q 60 95 100 85" stroke="rgba(255,255,255,0.4)" stroke-width="2" fill="none"/>
</svg>
